<?xml version="1.0" encoding="utf-8"?>
<!-- Generator: Adobe Illustrator 25.2.3, SVG Export Plug-In . SVG Version: 6.00 Build 0)  -->
<svg version="1.1" id="圖層_1" xmlns="http://www.w3.org/2000/svg" xmlns:xlink="http://www.w3.org/1999/xlink" x="0px" y="0px"
	 viewBox="0 0 65.4 65.4" style="enable-background:new 0 0 65.4 65.4;" xml:space="preserve">
<style type="text/css">
	.st0{fill:#CCCCCC;}
	.st1{fill:#FFFFFF;}
	.st2{fill:#A12B2A;}
</style>
<path class="st0" d="M54,32.7c0,11.9-9.7,21.6-21.6,21.6c-12,0-21.6-9.7-21.6-21.6c0-12,9.7-21.6,21.6-21.6C44.3,11,54,20.7,54,32.7
	z"/>
<path class="st1" d="M53,31.7c0,11.7-9.5,21.1-21.1,21.1c-11.7,0-21.1-9.5-21.1-21.1c0-11.7,9.5-21.1,21.1-21.1
	C43.5,10.5,53,20,53,31.7z"/>
<path class="st2" d="M49.3,31.7c0,9.6-7.8,17.5-17.5,17.5c-9.7,0-17.5-7.8-17.5-17.5c0-9.7,7.8-17.5,17.5-17.5
	C41.5,14.2,49.3,22,49.3,31.7z"/>
<path class="st1" d="M27.1,45.1c-0.1,0.3,0,0.4,0.2,0.1l10.8-16c0.2-0.3,0.1-0.5-0.2-0.5h-4.7c-0.3,0-0.5,0-0.5,0s-0.2,0-0.4,0
	c-0.2,0-0.3-0.3-0.2-0.6l2.9-9.9c0.1-0.3,0-0.4-0.2-0.1l-10.8,16c-0.2,0.3-0.1,0.5,0.2,0.5h4.7c0.3,0,0.5,0,0.5,0c0,0,0.2,0,0.4,0
	c0.2,0,0.3,0.3,0.2,0.6L27.1,45.1z"/>
</svg>
